<svg width="1728" height="2627" viewBox="0 0 1728 2627" fill="none" xmlns="http://www.w3.org/2000/svg">
<g clip-path="url(#clip0_193_169)">
<rect width="1728" height="2627" fill="white"/>
<rect width="1728" height="932" fill="white"/>
<path d="M0 441.287C0 441.287 644.277 210.76 930.061 590.689C1215.84 970.619 1745 471.074 1745 471.074V1401H0V441.287Z" fill="#FCECD3"/>
<path d="M118.711 2609.33C567.109 2515.08 829.552 2489.74 824.836 2565.25C820.121 2640.76 1745 2600.18 1745 2600.18L1713.99 2668L-3.31083 2647.99C-3.31083 2647.99 -329.687 2703.59 118.711 2609.33Z" fill="#E6C9A7" fill-opacity="0.5"/>
<path d="M-29.9094 1900.95C-44.6598 1895.96 1746.83 1912.73 1731.57 1901.99C1716.31 1891.25 2012.27 1969.53 1731.57 1971.56C1450.87 1973.59 -29.9094 1913.59 -26.2585 1971.56C-22.6076 2029.53 -15.1591 1905.95 -29.9094 1900.95Z" fill="#D4D9EB"/>
<rect y="932" width="1728" height="469" fill="white"/>
<rect y="932" width="1728" height="469" fill="white"/>
</g>
<defs>
<clipPath id="clip0_193_169">
<rect width="1728" height="2627" fill="white"/>
</clipPath>
</defs>
</svg>
