<svg width="408" height="352" viewBox="0 0 408 352" fill="none" xmlns="http://www.w3.org/2000/svg">
<path d="M253.388 3.65489C202.777 3.10949 140.848 3.78008 91.4108 14.9001C66.6982 20.4587 44.8206 28.6871 29.0086 40.9041C13.0813 53.2101 3.30655 69.5846 3.07514 91.0586C2.84876 112.066 9.63235 138.515 21.3416 166.247C33.0728 194.03 49.8438 223.325 69.8222 250.076C89.7951 276.821 113.039 301.111 137.753 318.808C162.446 336.491 188.81 347.735 214.958 348.017C266.668 348.574 313.717 321.904 347.858 284.995C381.973 248.112 403.578 200.603 404.028 158.838C404.474 117.426 392.715 78.8862 367.751 50.521C342.741 22.1041 304.748 4.20836 253.388 3.65489Z" stroke="#F2C673" stroke-opacity="0.91" stroke-width="6" stroke-linejoin="round"/>
</svg>
